# xmcd CD database file
#
# Track frame offsets:
#	150
#	15931
#	28037
#	44546
#	62698
#	81788
#	97367
#	113934
#	125444
#	144977
#	160432
#	174577
#	192165
#	217069
#	236362
#	250214
#	264667
#	278518
#
# Disc length: 3914 seconds
#
# Revision: 0
# Processed by: cddbd v1.5.2PL0 Copyright (c) Steve Scherf et al.
# Submitted via: CDex 1.51
#
DISCID=000f4812
DTITLE=J.J. Johnson and Kai Winding - Jay and Kai
DYEAR=1956
DGENRE=Jazz
TTITLE0=You'd be so nice to come home to
TTITLE1=Caribe
TTITLE2=Happiness is a thing called Joe
TTITLE3=The song is you
TTITLE4=In the wee small hours of the morning
TTITLE5=Yes, you
TTITLE6=The tromboniums in motion
TTITLE7=How high the moon
TTITLE8=Violets for your furs
TTITLE9=Too close for comfort
TTITLE10='S wonderful
TTITLE11=I should care
TTITLE12=Lover come back to me
TTITLE13=True blue tromboniums
TTITLE14=NWPT
TTITLE15=You're crying
TTITLE16=Funk junction
TTITLE17=Grasshopper
EXTD=YEAR: 1956
EXTT0=
EXTT1=
EXTT2=
EXTT3=
EXTT4=
EXTT5=
EXTT6=
EXTT7=
EXTT8=
EXTT9=
EXTT10=
EXTT11=
EXTT12=
EXTT13=
EXTT14=
EXTT15=
EXTT16=
EXTT17=
PLAYORDER=
